{
  "source": "C:\\Users\\Peter\\Desktop\\stuff\\MIUN\\quantitative_research\\video_compression\\videos\\UVG\\Beauty_1920x1080_120fps_420_8bit_YUV.y4m",
  "output": "C:\\Users\\Peter\\Desktop\\stuff\\MIUN\\quantitative_research\\video_compression\\compressed_videos\\UVG\\hevc\\8\\Beauty_1920x1080_120fps_420_8bit_YUV_hevc.mp4",
  "codec": "hevc",
  "ok": "[yuv4mpegpipe @ 00000248f8586740] Stream #0: not enough frames to estimate rate; consider increasing probesize\nInput #0, yuv4mpegpipe, from 'C:\\Users\\Peter\\Desktop\\stuff\\MIUN\\quantitative_research\\video_compression\\videos\\UVG\\Beauty_1920x1080_120fps_420_8bit_YUV.y4m':\n  Duration: 00:00:05.00, start: 0.000000, bitrate: 2985989 kb/s\n  Stream #0:0: Video: rawvideo (I420 / 0x30323449), yuv420p(progressive), 1920x1080, 120 fps, 120 tbr, 120 tbn\n[out#0/mp4 @ 00000248f8589a80] Codec AVOption b:a (set bitrate (in bits/s)) has not been used for any stream. The most likely reason is either wrong type (e.g. a video option with no video streams) or that it is a private option of some decoder which was not actually used for any stream.\nStream mapping:\n  Stream #0:0 -> #0:0 (rawvideo (native) -> hevc (libx265))\nPress [q] to stop, [?] for help\n[libx265 @ 00000248f858cac0] Unknown option: \"aq-mode.\nx265 [info]: HEVC encoder version 4.1+190-8f11c33ac\nx265 [info]: build info [Windows][GCC 15.1.0][64 bit] 10bit\nx265 [info]: using cpu capabilities: MMX2 SSE2Fast LZCNT SSSE3 SSE4.2 AVX FMA3 BMI2 AVX2\nx265 [info]: Main 10 profile, Level-5 (Main tier)\nx265 [info]: Thread pool created using 12 threads\nx265 [info]: Slices                              : 1\nx265 [info]: frame threads / pool features       : 3 / wpp(17 rows)\nx265 [info]: Coding QT: max CU size, min CU size : 64 / 8\nx265 [info]: Residual QT: max TU size, max depth : 32 / 1 inter / 1 intra\nx265 [info]: ME / range / subpel / merge         : star / 57 / 3 / 3\nx265 [info]: Keyframe min / max / scenecut / bias  : 25 / 250 / 40 / 5.00 \nx265 [info]: Lookahead / bframes / badapt        : 25 / 4 / 2\nx265 [info]: b-pyramid / weightp / weightb       : 1 / 1 / 0\nx265 [info]: References / ref-limit  cu / depth  : 4 / on / on\nx265 [info]: AQ: mode / str / qg-size / cu-tree  : 2 / 1.0 / 32 / 1\nx265 [info]: Rate Control / qCompress            : ABR-8000 kbps / 0.60\nx265 [info]: VBV/HRD buffer / max-rate / init    : 8000 / 8000 / 0.750\nx265 [info]: tools: rect limit-modes rd=4 psy-rd=2.00 rdoq=2 psy-rdoq=1.00\nx265 [info]: tools: rskip mode=1 signhide tmvp strong-intra-smoothing lslices=4\nx265 [info]: tools: deblock sao dhdr10-info\nOutput #0, mp4, to 'C:\\Users\\Peter\\Desktop\\stuff\\MIUN\\quantitative_research\\video_compression\\compressed_videos\\UVG\\hevc\\8\\Beauty_1920x1080_120fps_420_8bit_YUV_hevc.mp4':\n  Metadata:\n    encoder         : Lavf62.3.100\n  Stream #0:0: Video: hevc (hev1 / 0x31766568), yuv420p10le(tv, progressive), 1920x1080, q=2-31, 8000 kb/s, 120 fps, 15360 tbn\n    Metadata:\n      encoder         : Lavc62.11.100 libx265\n    Side data:\n      cpb: bitrate max/min/avg: 8000000/0/8000000 buffer size: 8000000 vbv_delay: N/A\nframe=    0 fps=0.0 q=0.0 size=       0KiB time=N/A bitrate=N/A speed=N/A elapsed=0:00:00.51    \nframe=    6 fps=5.8 q=42.1 size=       0KiB time=00:00:00.03 bitrate=  10.6kbits/s speed=0.0322x elapsed=0:00:01.03    \nframe=   11 fps=7.1 q=34.3 size=       0KiB time=00:00:00.07 bitrate=   4.7kbits/s speed=0.0483x elapsed=0:00:01.55    \nframe=   16 fps=7.8 q=34.0 size=       0KiB time=00:00:00.11 bitrate=   3.0kbits/s speed=0.0567x elapsed=0:00:02.05    \nframe=   21 fps=8.1 q=33.7 size=       0KiB time=00:00:00.15 bitrate=   2.2kbits/s speed=0.0614x elapsed=0:00:02.57    \nframe=   25 fps=8.1 q=33.7 size=       0KiB time=00:00:00.19 bitrate=   1.8kbits/s speed=0.0618x elapsed=0:00:03.10    \nframe=   30 fps=8.3 q=33.7 size=       0KiB time=00:00:00.23 bitrate=   1.5kbits/s speed=0.0648x elapsed=0:00:03.60    \nframe=   35 fps=8.5 q=33.7 size=       0KiB time=00:00:00.27 bitrate=   1.3kbits/s speed=0.0667x elapsed=0:00:04.12    \nframe=   40 fps=8.6 q=32.8 size=     256KiB time=00:00:00.31 bitrate=6623.7kbits/s speed=0.0682x elapsed=0:00:04.64    \nframe=   45 fps=8.7 q=32.5 size=     256KiB time=00:00:00.35 bitrate=5853.5kbits/s speed=0.0695x elapsed=0:00:05.15    \nframe=   49 fps=8.6 q=32.6 size=     256KiB time=00:00:00.39 bitrate=5355.3kbits/s speed=0.069x elapsed=0:00:05.67    \nframe=   54 fps=8.7 q=32.5 size=     256KiB time=00:00:00.43 bitrate=4840.4kbits/s speed=0.0701x elapsed=0:00:06.18    \nframe=   59 fps=8.8 q=32.4 size=     256KiB time=00:00:00.47 bitrate=4415.8kbits/s speed=0.0709x elapsed=0:00:06.69    \nframe=   64 fps=8.9 q=32.4 size=     256KiB time=00:00:00.51 bitrate=4059.7kbits/s speed=0.0716x elapsed=0:00:07.21    \nframe=   68 fps=8.8 q=30.5 size=     256KiB time=00:00:00.55 bitrate=3813.6kbits/s speed=0.0711x elapsed=0:00:07.73    \nframe=   73 fps=8.8 q=30.0 size=     512KiB time=00:00:00.59 bitrate=7089.6kbits/s speed=0.0717x elapsed=0:00:08.25    \nframe=   77 fps=8.8 q=28.8 size=     512KiB time=00:00:00.62 bitrate=6711.4kbits/s speed=0.0713x elapsed=0:00:08.76    \nframe=   81 fps=8.7 q=32.3 size=     512KiB time=00:00:00.65 bitrate=6371.6kbits/s speed=0.0709x elapsed=0:00:09.28    \nframe=   85 fps=8.7 q=32.4 size=     512KiB time=00:00:00.69 bitrate=6064.6kbits/s speed=0.0706x elapsed=0:00:09.79    \nframe=   89 fps=8.6 q=32.5 size=     512KiB time=00:00:00.72 bitrate=5785.7kbits/s speed=0.0703x elapsed=0:00:10.31    \nframe=   93 fps=8.6 q=30.7 size=     512KiB time=00:00:00.75 bitrate=5531.4kbits/s speed=0.0701x elapsed=0:00:10.82    \nframe=   97 fps=8.5 q=27.9 size=     512KiB time=00:00:00.79 bitrate=5298.5kbits/s speed=0.0697x elapsed=0:00:11.35    \nframe=  101 fps=8.5 q=32.5 size=     512KiB time=00:00:00.82 bitrate=5084.4kbits/s speed=0.0696x elapsed=0:00:11.86    \nframe=  105 fps=8.5 q=32.5 size=     768KiB time=00:00:00.85 bitrate=7330.3kbits/s speed=0.0694x elapsed=0:00:12.37    \nframe=  110 fps=8.5 q=32.6 size=     768KiB time=00:00:00.90 bitrate=6990.9kbits/s speed=0.0698x elapsed=0:00:12.88    \nframe=  114 fps=8.5 q=32.5 size=     768KiB time=00:00:00.93 bitrate=6741.2kbits/s speed=0.0696x elapsed=0:00:13.40    \nframe=  118 fps=8.5 q=31.2 size=     768KiB time=00:00:00.96 bitrate=6508.8kbits/s speed=0.0694x elapsed=0:00:13.91    \nframe=  122 fps=8.4 q=29.0 size=     768KiB time=00:00:01.00 bitrate=6291.8kbits/s speed=0.0693x elapsed=0:00:14.43    \nframe=  127 fps=8.5 q=29.1 size=     768KiB time=00:00:01.04 bitrate=6040.1kbits/s speed=0.0697x elapsed=0:00:14.95    \nframe=  131 fps=8.5 q=31.7 size=     768KiB time=00:00:01.07 bitrate=5852.8kbits/s speed=0.0695x elapsed=0:00:15.46    \nframe=  135 fps=8.4 q=31.9 size=    1024KiB time=00:00:01.10 bitrate=7569.0kbits/s speed=0.0693x elapsed=0:00:15.98    \nframe=  139 fps=8.4 q=31.7 size=    1024KiB time=00:00:01.14 bitrate=7348.0kbits/s speed=0.0692x elapsed=0:00:16.50    \nframe=  143 fps=8.4 q=30.2 size=    1024KiB time=00:00:01.17 bitrate=7139.5kbits/s speed=0.069x elapsed=0:00:17.01    \nframe=  147 fps=8.4 q=28.1 size=    1024KiB time=00:00:01.20 bitrate=6942.6kbits/s speed=0.0689x elapsed=0:00:17.53    \nframe=  151 fps=8.4 q=31.5 size=    1024KiB time=00:00:01.24 bitrate=6756.2kbits/s speed=0.0688x elapsed=0:00:18.04    \nframe=  156 fps=8.4 q=31.2 size=    1024KiB time=00:00:01.28 bitrate=6536.9kbits/s speed=0.0692x elapsed=0:00:18.55    \nframe=  160 fps=8.4 q=31.3 size=    1024KiB time=00:00:01.31 bitrate=6371.4kbits/s speed=0.069x elapsed=0:00:19.07    \nframe=  164 fps=8.4 q=31.4 size=    1024KiB time=00:00:01.35 bitrate=6214.0kbits/s speed=0.0689x elapsed=0:00:19.59    \nframe=  168 fps=8.4 q=29.7 size=    1280KiB time=00:00:01.38 bitrate=7580.3kbits/s speed=0.0688x elapsed=0:00:20.10    \nframe=  172 fps=8.3 q=28.0 size=    1280KiB time=00:00:01.41 bitrate=7402.0kbits/s speed=0.0687x elapsed=0:00:20.62    \nframe=  176 fps=8.3 q=31.9 size=    1280KiB time=00:00:01.45 bitrate=7231.8kbits/s speed=0.0686x elapsed=0:00:21.14    \nframe=  180 fps=8.3 q=31.3 size=    1280KiB time=00:00:01.48 bitrate=7069.3kbits/s speed=0.0685x elapsed=0:00:21.65    \nframe=  184 fps=8.3 q=31.5 size=    1280KiB time=00:00:01.51 bitrate=6913.9kbits/s speed=0.0684x elapsed=0:00:22.18    \nframe=  188 fps=8.3 q=29.6 size=    1280KiB time=00:00:01.55 bitrate=6765.2kbits/s speed=0.0683x elapsed=0:00:22.69    \nframe=  192 fps=8.3 q=27.8 size=    1280KiB time=00:00:01.58 bitrate=6622.8kbits/s speed=0.0682x elapsed=0:00:23.19    \nframe=  195 fps=8.2 q=31.6 size=    1280KiB time=00:00:01.60 bitrate=6519.9kbits/s speed=0.0678x elapsed=0:00:23.71    \nframe=  199 fps=8.2 q=31.6 size=    1536KiB time=00:00:01.64 bitrate=7664.9kbits/s speed=0.0677x elapsed=0:00:24.23    \nframe=  203 fps=8.2 q=30.0 size=    1536KiB time=00:00:01.67 bitrate=7512.4kbits/s speed=0.0677x elapsed=0:00:24.74    \nframe=  207 fps=8.2 q=27.9 size=    1536KiB time=00:00:01.70 bitrate=7365.8kbits/s speed=0.0676x elapsed=0:00:25.26    \nframe=  210 fps=8.1 q=32.2 size=    1536KiB time=00:00:01.73 bitrate=7259.6kbits/s speed=0.0672x elapsed=0:00:25.77    \nframe=  214 fps=8.1 q=32.1 size=    1536KiB time=00:00:01.76 bitrate=7122.6kbits/s speed=0.0672x elapsed=0:00:26.30    \nframe=  218 fps=8.1 q=31.2 size=    1536KiB time=00:00:01.80 bitrate=6990.7kbits/s speed=0.0671x elapsed=0:00:26.81    \nframe=  222 fps=8.1 q=28.0 size=    1536KiB time=00:00:01.83 bitrate=6863.6kbits/s speed=0.0671x elapsed=0:00:27.33    \nframe=  226 fps=8.1 q=32.3 size=    1792KiB time=00:00:01.86 bitrate=7864.5kbits/s speed=0.067x elapsed=0:00:27.85    \nframe=  230 fps=8.1 q=32.3 size=    1792KiB time=00:00:01.90 bitrate=7726.5kbits/s speed=0.067x elapsed=0:00:28.35    \nframe=  234 fps=8.1 q=32.3 size=    1792KiB time=00:00:01.93 bitrate=7593.3kbits/s speed=0.067x elapsed=0:00:28.86    \nframe=  240 fps=8.2 q=32.4 size=    1792KiB time=00:00:01.98 bitrate=7401.9kbits/s speed=0.0675x elapsed=0:00:29.38    \nframe=  245 fps=8.2 q=32.4 size=    1792KiB time=00:00:02.02 bitrate=7249.6kbits/s speed=0.0677x elapsed=0:00:29.90    \nframe=  252 fps=8.3 q=27.8 size=    1792KiB time=00:00:02.08 bitrate=7046.6kbits/s speed=0.0685x elapsed=0:00:30.42    \nframe=  258 fps=8.3 q=31.1 size=    2048KiB time=00:00:02.13 bitrate=7864.5kbits/s speed=0.069x elapsed=0:00:30.93    \nframe=  263 fps=8.4 q=31.4 size=    2048KiB time=00:00:02.17 bitrate=7713.8kbits/s speed=0.0691x elapsed=0:00:31.45    \nframe=  267 fps=8.4 q=27.9 size=    2048KiB time=00:00:02.20 bitrate=7597.4kbits/s speed=0.0691x elapsed=0:00:31.96    \nframe=  272 fps=8.4 q=28.0 size=    2048KiB time=00:00:02.25 bitrate=7456.7kbits/s speed=0.0693x elapsed=0:00:32.49    \nframe=  277 fps=8.4 q=28.2 size=    2048KiB time=00:00:02.29 bitrate=7321.1kbits/s speed=0.0694x elapsed=0:00:33.00    \nframe=  282 fps=8.4 q=28.6 size=    2048KiB time=00:00:02.33 bitrate=7190.4kbits/s speed=0.0696x elapsed=0:00:33.52    \nframe=  287 fps=8.4 q=28.9 size=    2304KiB time=00:00:02.37 bitrate=7947.3kbits/s speed=0.0698x elapsed=0:00:34.03    \nframe=  292 fps=8.5 q=28.7 size=    2304KiB time=00:00:02.41 bitrate=7810.2kbits/s speed=0.0699x elapsed=0:00:34.54    \nframe=  298 fps=8.5 q=31.4 size=    2304KiB time=00:00:02.46 bitrate=7651.9kbits/s speed=0.0704x elapsed=0:00:35.05    \nframe=  303 fps=8.5 q=31.1 size=    2304KiB time=00:00:02.50 bitrate=7524.8kbits/s speed=0.0705x elapsed=0:00:35.57    \nframe=  309 fps=8.6 q=32.7 size=    2304KiB time=00:00:02.55 bitrate=7377.7kbits/s speed=0.0709x elapsed=0:00:36.09    \nframe=  314 fps=8.6 q=32.6 size=    2304KiB time=00:00:02.60 bitrate=7259.5kbits/s speed=0.071x elapsed=0:00:36.61    \nframe=  319 fps=8.6 q=32.5 size=    2560KiB time=00:00:02.64 bitrate=7938.9kbits/s speed=0.0711x elapsed=0:00:37.13    \nframe=  324 fps=8.6 q=32.5 size=    2560KiB time=00:00:02.68 bitrate=7815.6kbits/s speed=0.0713x elapsed=0:00:37.64    \nframe=  329 fps=8.6 q=32.2 size=    2560KiB time=00:00:02.72 bitrate=7696.1kbits/s speed=0.0714x elapsed=0:00:38.16    \nframe=  334 fps=8.6 q=32.2 size=    2560KiB time=00:00:02.76 bitrate=7580.2kbits/s speed=0.0715x elapsed=0:00:38.66    \nframe=  340 fps=8.7 q=32.3 size=    2560KiB time=00:00:02.81 bitrate=7445.6kbits/s speed=0.0719x elapsed=0:00:39.18    \nframe=  346 fps=8.7 q=32.4 size=    2560KiB time=00:00:02.86 bitrate=7315.8kbits/s speed=0.0722x elapsed=0:00:39.70    \nframe=  351 fps=8.7 q=32.4 size=    2816KiB time=00:00:02.90 bitrate=7932.0kbits/s speed=0.0723x elapsed=0:00:40.22    \nframe=  356 fps=8.7 q=32.4 size=    2816KiB time=00:00:02.95 bitrate=7820.0kbits/s speed=0.0724x elapsed=0:00:40.73    \nframe=  361 fps=8.8 q=32.4 size=    2816KiB time=00:00:02.99 bitrate=7711.1kbits/s speed=0.0725x elapsed=0:00:41.25    \nframe=  367 fps=8.8 q=28.1 size=    2816KiB time=00:00:03.04 bitrate=7584.3kbits/s speed=0.0728x elapsed=0:00:41.76    \nframe=  373 fps=8.8 q=31.0 size=    2816KiB time=00:00:03.09 bitrate=7461.7kbits/s speed=0.0731x elapsed=0:00:42.28    \nframe=  379 fps=8.9 q=32.3 size=    3072KiB time=00:00:03.14 bitrate=8010.5kbits/s speed=0.0734x elapsed=0:00:42.80    \nframe=  384 fps=8.9 q=32.3 size=    3072KiB time=00:00:03.18 bitrate=7905.6kbits/s speed=0.0735x elapsed=0:00:43.31    \nframe=  389 fps=8.9 q=32.1 size=    3072KiB time=00:00:03.22 bitrate=7803.5kbits/s speed=0.0736x elapsed=0:00:43.83    \nframe=  394 fps=8.9 q=32.2 size=    3072KiB time=00:00:03.26 bitrate=7703.9kbits/s speed=0.0737x elapsed=0:00:44.34    \nframe=  399 fps=8.9 q=32.2 size=    3072KiB time=00:00:03.30 bitrate=7606.9kbits/s speed=0.0737x elapsed=0:00:44.86    \nframe=  404 fps=8.9 q=32.1 size=    3072KiB time=00:00:03.35 bitrate=7512.3kbits/s speed=0.0738x elapsed=0:00:45.37    \nframe=  410 fps=8.9 q=32.3 size=    3328KiB time=00:00:03.40 bitrate=8018.6kbits/s speed=0.0741x elapsed=0:00:45.89    \nframe=  415 fps=8.9 q=32.3 size=    3328KiB time=00:00:03.44 bitrate=7921.5kbits/s speed=0.0742x elapsed=0:00:46.41    \nframe=  420 fps=9.0 q=32.2 size=    3328KiB time=00:00:03.48 bitrate=7826.8kbits/s speed=0.0742x elapsed=0:00:46.92    \nframe=  426 fps=9.0 q=32.3 size=    3328KiB time=00:00:03.53 bitrate=7716.0kbits/s speed=0.0745x elapsed=0:00:47.44    \nframe=  431 fps=9.0 q=32.2 size=    3328KiB time=00:00:03.57 bitrate=7626.1kbits/s speed=0.0746x elapsed=0:00:47.94    \nframe=  436 fps=9.0 q=32.2 size=    3328KiB time=00:00:03.61 bitrate=7538.2kbits/s speed=0.0746x elapsed=0:00:48.46    \nframe=  441 fps=9.0 q=32.2 size=    3584KiB time=00:00:03.65 bitrate=8025.6kbits/s speed=0.0747x elapsed=0:00:48.98    \nframe=  446 fps=9.0 q=32.3 size=    3584KiB time=00:00:03.70 bitrate=7935.3kbits/s speed=0.0747x elapsed=0:00:49.50    \nframe=  452 fps=9.0 q=28.5 size=    3584KiB time=00:00:03.75 bitrate=7829.5kbits/s speed=0.075x elapsed=0:00:50.01    \nframe=  457 fps=9.0 q=28.6 size=    3584KiB time=00:00:03.79 bitrate=7743.4kbits/s speed=0.075x elapsed=0:00:50.53    \nframe=  463 fps=9.1 q=30.9 size=    3584KiB time=00:00:03.84 bitrate=7642.6kbits/s speed=0.0753x elapsed=0:00:51.04    \nframe=  469 fps=9.1 q=32.1 size=    3584KiB time=00:00:03.89 bitrate=7544.4kbits/s speed=0.0755x elapsed=0:00:51.56    \nframe=  474 fps=9.1 q=32.2 size=    3840KiB time=00:00:03.93 bitrate=7997.7kbits/s speed=0.0755x elapsed=0:00:52.07    \nframe=  480 fps=9.1 q=32.1 size=    3840KiB time=00:00:03.98 bitrate=7897.3kbits/s speed=0.0757x elapsed=0:00:52.59    \nframe=  485 fps=9.1 q=32.1 size=    3840KiB time=00:00:04.02 bitrate=7815.6kbits/s speed=0.0758x elapsed=0:00:53.11    \nframe=  490 fps=9.1 q=32.2 size=    3840KiB time=00:00:04.06 bitrate=7735.5kbits/s speed=0.0758x elapsed=0:00:53.62    \nframe=  496 fps=9.2 q=32.4 size=    3840KiB time=00:00:04.11 bitrate=7641.5kbits/s speed=0.076x elapsed=0:00:54.14    \nframe=  503 fps=9.2 q=30.9 size=    4096KiB time=00:00:04.17 bitrate=8037.1kbits/s speed=0.0764x elapsed=0:00:54.65    \nframe=  509 fps=9.2 q=32.2 size=    4096KiB time=00:00:04.22 bitrate=7942.0kbits/s speed=0.0766x elapsed=0:00:55.16    \nframe=  514 fps=9.2 q=32.3 size=    4096KiB time=00:00:04.26 bitrate=7864.4kbits/s speed=0.0766x elapsed=0:00:55.68    \nframe=  519 fps=9.2 q=32.3 size=    4096KiB time=00:00:04.30 bitrate=7788.3kbits/s speed=0.0767x elapsed=0:00:56.19    \nframe=  525 fps=9.3 q=32.3 size=    4096KiB time=00:00:04.35 bitrate=7699.0kbits/s speed=0.0768x elapsed=0:00:56.71    \nframe=  531 fps=9.3 q=32.3 size=    4096KiB time=00:00:04.40 bitrate=7611.7kbits/s speed=0.077x elapsed=0:00:57.23    \nframe=  537 fps=9.3 q=27.8 size=    4352KiB time=00:00:04.45 bitrate=7996.7kbits/s speed=0.0772x elapsed=0:00:57.75    \nframe=  543 fps=9.3 q=31.1 size=    4352KiB time=00:00:04.50 bitrate=7908.0kbits/s speed=0.0774x elapsed=0:00:58.27    \nframe=  549 fps=9.3 q=32.2 size=    4352KiB time=00:00:04.55 bitrate=7821.3kbits/s speed=0.0775x elapsed=0:00:58.77    \nframe=  554 fps=9.3 q=32.2 size=    4352KiB time=00:00:04.60 bitrate=7750.4kbits/s speed=0.0776x elapsed=0:00:59.29    \nframe=  560 fps=9.4 q=32.3 size=    4352KiB time=00:00:04.65 bitrate=7667.1kbits/s speed=0.0777x elapsed=0:00:59.81    \nframe=  565 fps=9.4 q=32.1 size=    4352KiB time=00:00:04.69 bitrate=7599.0kbits/s speed=0.0778x elapsed=0:01:00.32    \nframe=  571 fps=9.4 q=32.4 size=    4608KiB time=00:00:04.74 bitrate=7961.1kbits/s speed=0.0779x elapsed=0:01:00.83    \nframe=  576 fps=9.4 q=32.3 size=    4608KiB time=00:00:04.78 bitrate=7891.8kbits/s speed=0.0779x elapsed=0:01:01.36    \nframe=  582 fps=9.4 q=27.9 size=    4608KiB time=00:00:04.83 bitrate=7810.2kbits/s speed=0.0781x elapsed=0:01:01.88    \nframe=  588 fps=9.4 q=30.9 size=    4608KiB time=00:00:04.88 bitrate=7730.2kbits/s speed=0.0783x elapsed=0:01:02.39    \nframe=  594 fps=9.4 q=32.1 size=    4608KiB time=00:00:04.93 bitrate=7651.8kbits/s speed=0.0784x elapsed=0:01:02.91    \n[mp4 @ 00000248f8589b80] Starting second pass: moving the moov atom to the beginning of the file\n[out#0/mp4 @ 00000248f8589a80] video:4866KiB audio:0KiB subtitle:0KiB other streams:0KiB global headers:2KiB muxing overhead: 0.206542%\nframe=  600 fps=9.5 q=32.2 Lsize=    4876KiB time=00:00:04.98 bitrate=8015.2kbits/s speed=0.0787x elapsed=0:01:03.34    \nx265 [info]: frame I:      3, Avg QP:30.91  kb/s: 22786.88\nx265 [info]: frame P:    118, Avg QP:28.46  kb/s: 16975.15\nx265 [info]: frame B:    479, Avg QP:32.12  kb/s: 5656.53 \nx265 [info]: Weighted P-Frames: Y:0.0% UV:0.0%\n\nencoded 600 frames in 63.28s (9.48 fps), 7968.18 kb/s, Avg QP:31.39\n",
  "seconds": 63.432528257369995,
  "probe_out": {}
}